<?xml version="1.0" encoding="UTF-8"?>
<svg width="30px" height="22px" viewBox="0 0 30 22" version="1.1" xmlns="http://www.w3.org/2000/svg" xmlns:xlink="http://www.w3.org/1999/xlink">
    <!-- Generator: Sketch 51.3 (57544) - http://www.bohemiancoding.com/sketch -->
    <title>Group 13</title>
    <desc>Created with Sketch.</desc>
    <defs>
        <path d="M29.3669123,9.05778382 L20.4028521,0.597552685 C19.5587353,-0.199184228 18.1910067,-0.199184228 17.34761,0.597552685 C16.5034931,1.3942896 16.5034931,2.68524813 17.34761,3.48130523 L22.6226202,8.46023114 L2.16070871,8.46023114 C0.966557031,8.46023114 0,9.3732155 0,10.4996601 C0,11.6261047 0.966557031,12.5390891 2.16070871,12.5390891 L22.6226202,12.5390891 L17.34761,17.5186948 C16.5034931,18.3147519 16.5034931,19.60707 17.34761,20.4024473 C17.7689482,20.8008158 18.3220896,21 18.8752311,21 C19.4276523,21 19.9807937,20.8008158 20.4028521,20.4024473 L29.3669123,11.9415364 C29.7716851,11.5594833 30,11.0407886 30,10.4996601 C30,9.95853161 29.7716851,9.43983685 29.3669123,9.05778382" id="path-1"></path>
        <polygon id="path-3" points="0 0 30 0 30 21 0 21"></polygon>
    </defs>
    <g id="Symbols" stroke="none" stroke-width="1" fill="none" fill-rule="evenodd">
        <g id="Icon/Slider-Arrow" transform="translate(-27.000000, -31.000000)">
            <g id="Group-13" transform="translate(27.000000, 31.000000)">
                <g id="Icon/Arrow" transform="translate(15.000000, 10.714286) rotate(-180.000000) translate(-15.000000, -10.714286) ">
                    <g id="Page-1">
                        <g id="Color/-Blue-Dark">
                            <mask id="mask-2" fill="white">
                                <use xlink:href="#path-1"></use>
                            </mask>
                            <use id="Mask" fill="#231F20" xlink:href="#path-1"></use>
                            <g mask="url(#mask-2)" fill="#032459" id="Rectangle-2">
                                <g transform="translate(-6.428571, -6.300000)">
                                    <rect x="0" y="0" width="45" height="44"></rect>
                                </g>
                            </g>
                        </g>
                        <mask id="mask-4" fill="white">
                            <use xlink:href="#path-3"></use>
                        </mask>
                        <g id="Clip-2"></g>
                    </g>
                </g>
            </g>
        </g>
    </g>
</svg>